<svg xmlns="http://www.w3.org/2000/svg" xmlns:xlink="http://www.w3.org/1999/xlink" version="1.1" viewBox="142.8 72.8 414.39 414.39" fill='#fff'>
 <g>
  <path d="m350 72.801c-12.371 0-22.398 10.027-22.398 22.398v162.4h-162.4c-12.371 0-22.398 10.027-22.398 22.398s10.027 22.398 22.398 22.398h162.4v162.4c0 12.371 10.027 22.398 22.398 22.398s22.398-10.027 22.398-22.398v-162.4h162.4c12.371 0 22.398-10.027 22.398-22.398s-10.027-22.398-22.398-22.398h-162.4v-162.4c0-12.371-10.027-22.398-22.398-22.398z"/>
  <use x="70" y="644" xlink:href="#u"/>
  <use x="90.550781" y="644" xlink:href="#c"/>
  <use x="104.359375" y="644" xlink:href="#a"/>
  <use x="123.347656" y="644" xlink:href="#i"/>
  <use x="142.242188" y="644" xlink:href="#b"/>
  <use x="155.628906" y="644" xlink:href="#a"/>
  <use x="174.617188" y="644" xlink:href="#h"/>
  <use x="204.410156" y="644" xlink:href="#f"/>
  <use x="224.453125" y="644" xlink:href="#e"/>
  <use x="252.453125" y="644" xlink:href="#g"/>
  <use x="274.121094" y="644" xlink:href="#e"/>
  <use x="292.375" y="644" xlink:href="#f"/>
  <use x="312.414062" y="644" xlink:href="#t"/>
  <use x="322.015625" y="644" xlink:href="#s"/>
  <use x="342.054688" y="644" xlink:href="#a"/>
  <use x="70" y="672" xlink:href="#r"/>
  <use x="82.183594" y="672" xlink:href="#c"/>
  <use x="95.992188" y="672" xlink:href="#d"/>
  <use x="115.226562" y="672" xlink:href="#q"/>
  <use x="154.152344" y="672" xlink:href="#b"/>
  <use x="167.535156" y="672" xlink:href="#p"/>
  <use x="187.46875" y="672" xlink:href="#a"/>
  <use x="216.207031" y="672" xlink:href="#o"/>
  <use x="239.640625" y="672" xlink:href="#d"/>
  <use x="258.878906" y="672" xlink:href="#n"/>
  <use x="278.8125" y="672" xlink:href="#m"/>
  <use x="308.492188" y="672" xlink:href="#l"/>
  <use x="329.015625" y="672" xlink:href="#c"/>
  <use x="342.820312" y="672" xlink:href="#d"/>
  <use x="362.058594" y="672" xlink:href="#k"/>
  <use x="371.65625" y="672" xlink:href="#a"/>
  <use x="390.648438" y="672" xlink:href="#j"/>
  <use x="407.242188" y="672" xlink:href="#b"/>
 </g>
</svg>