<svg xmlns="http://www.w3.org/2000/svg" version="1.1" viewBox="156.14 49.25 387.72 461.5" fill="#fff">
 <g>
  <path d="m543.86 442.05c0 37.945-30.758 68.703-68.703 68.703-37.945 0-68.707-30.758-68.707-68.703 0-37.945 30.762-68.707 68.707-68.707 37.945 0 68.703 30.762 68.703 68.707"/>
  <path d="m310.52 239.4 114.22-75.059c12.547 13.648 30.414 22.348 50.418 22.348 37.941 0 68.703-30.766 68.703-68.703 0-37.977-30.766-68.738-68.703-68.738-37.941 0-68.703 30.766-68.703 68.738 0 8.4531 1.75 16.469 4.5508 23.957l-114.91 75.512c5.7734 6.582 10.621 13.969 14.418 21.945z"/>
  <path d="m293.53 280c0-37.941-30.766-68.703-68.703-68.703-37.941 0-68.688 30.762-68.688 68.703 0 37.977 30.766 68.738 68.703 68.738 19.25 0 36.609-7.9805 49.086-20.773l114.64 75.371c3.6211-8.0664 8.3125-15.574 13.914-22.262l-114.12-75.023c3.293-8.0625 5.1641-16.828 5.1641-26.051z"/>
 </g>
</svg>