<svg xmlns="http://www.w3.org/2000/svg" version="1.1" viewBox="122.5 52.4 455 455.1" fill='#fff'>
 <g>
  <path d="m525 507.5h-350c-13.926 0-27.277-5.5312-37.125-15.375-9.8438-9.8477-15.375-23.199-15.375-37.125v-148.75c0-6.2539 3.3359-12.031 8.75-15.156s12.086-3.125 17.5 0 8.75 8.9023 8.75 15.156v148.75c0 4.6406 1.8438 9.0938 5.125 12.375s7.7344 5.125 12.375 5.125h350c4.6406 0 9.0938-1.8438 12.375-5.125s5.125-7.7344 5.125-12.375v-148.75c0-6.2539 3.3359-12.031 8.75-15.156s12.086-3.125 17.5 0 8.75 8.9023 8.75 15.156v148.75c0 13.926-5.5312 27.277-15.375 37.125-9.8477 9.8438-23.199 15.375-37.125 15.375z"/>
  <path d="m437.5 175c-4.6523 0.027344-9.1211-1.8008-12.426-5.0742l-75.074-75.25-75.074 75.25c-4.4414 4.4375-10.91 6.1719-16.973 4.5469-6.0664-1.625-10.801-6.3594-12.426-12.426-1.625-6.0625 0.10938-12.531 4.5469-16.973l87.5-87.5c3.2852-3.3125 7.7578-5.1758 12.426-5.1758s9.1406 1.8633 12.426 5.1758l87.5 87.5c3.3125 3.2852 5.1758 7.7578 5.1758 12.426s-1.8633 9.1406-5.1758 12.426c-3.3047 3.2734-7.7734 5.1016-12.426 5.0742z"/>
  <path d="m350 411.25c-4.6406 0-9.0938-1.8438-12.375-5.125s-5.125-7.7344-5.125-12.375v-315c0-6.2539 3.3359-12.031 8.75-15.156s12.086-3.125 17.5 0 8.75 8.9023 8.75 15.156v315c0 4.6406-1.8438 9.0938-5.125 12.375s-7.7344 5.125-12.375 5.125z"/>
 </g>
</svg>